<svg width="76" height="76" viewBox="0 0 76 76" fill="none" xmlns="http://www.w3.org/2000/svg">
<rect width="76" height="76" rx="7" fill="#6700CE"/>
<path fill-rule="evenodd" clip-rule="evenodd" d="M23.0003 28.0003V43.0003H19.667V48.0003C19.667 49.8413 21.1594 51.3337 23.0003 51.3337L44.667 51.3337H53.0003C54.8413 51.3337 56.3337 49.8413 56.3337 48.0003V33.0003C56.3337 31.1594 54.8413 29.667 53.0003 29.667V28.0003C53.0003 26.1594 51.5079 24.667 49.667 24.667H26.3337C24.4927 24.667 23.0003 26.1594 23.0003 28.0003ZM49.667 29.667V28.0003H26.3337V43.0003H41.3337L41.3337 33.0003C41.3337 31.1594 42.826 29.667 44.667 29.667L49.667 29.667ZM23.0003 46.3337H41.3337L41.3337 48.0003L23.0003 48.0003V46.3337ZM44.667 48.0003V48.0005H53.0002V33.0005H44.6668V48.0003H44.667Z" fill="white"/>
</svg>
