<svg width="30" height="30" viewBox="0 0 30 30" fill="none" xmlns="http://www.w3.org/2000/svg">
<rect width="30" height="30" rx="4" fill="#7D2BE5"/>
<path fill-rule="evenodd" clip-rule="evenodd" d="M8.884 9H21.1264C21.7959 9 22.3385 9.59695 22.3385 10.3333V19.6667C22.3385 20.403 21.7959 21 21.1264 21H8.884C8.21456 21 7.67188 20.403 7.67188 19.6667V10.3333C7.67188 9.59695 8.21456 9 8.884 9ZM9.00643 10.3346V19.6679H21.0064V10.3346H9.00643ZM11.0041 15.6667H14.3374V17.6667H13.6707V19H16.3374V17.6667H15.6707V15.6667H19.0041V16.3333H20.3374V13.6667H19.0041V14.3333H15.6707V12.3333H16.3374V11H13.6707V12.3333H14.3374V14.3333H11.0041V13.6667H9.67073V16.3333H11.0041V15.6667Z" fill="white"/>
</svg>
