<svg width="30" height="30" viewBox="0 0 30 30" fill="none" xmlns="http://www.w3.org/2000/svg">
<rect width="30" height="30" rx="4" fill="#7D2BE5"/>
<path fill-rule="evenodd" clip-rule="evenodd" d="M20.6522 9.33846C21.8258 10.5121 21.4758 12.7127 20.0815 14.9936L20.0834 14.9967L20.0821 14.9988C21.4748 17.2786 21.8239 19.4778 20.6509 20.6509C19.4778 21.8239 17.2786 21.4748 14.9988 20.0821L14.9967 20.0834L14.9936 20.0815C12.7127 21.4758 10.5121 21.8258 9.33846 20.6522C8.16464 19.4783 8.51492 17.2771 9.90986 14.9957C8.51384 12.7136 8.16297 10.5113 9.33716 9.33716C10.5113 8.16297 12.7136 8.51384 14.9957 9.90986C17.2771 8.51492 19.4783 8.16464 20.6522 9.33846ZM19.7115 10.2834C20.2857 10.8576 20.0855 12.2105 19.2424 13.7768C18.8232 13.2312 18.3491 12.6907 17.8266 12.1682C17.3042 11.6458 16.7636 11.1717 16.2181 10.7525C17.7844 9.90936 19.1373 9.7092 19.7115 10.2834ZM13.1118 13.1118C13.7297 12.4939 14.3692 11.9585 14.9984 11.5131C15.6272 11.9584 16.2663 12.4935 16.8838 13.111C17.5014 13.7286 18.0365 14.3677 18.4818 14.9965C18.0363 15.6256 17.5009 16.2652 16.8831 16.8831C16.2652 17.5009 15.6256 18.0363 14.9965 18.4818C14.3677 18.0365 13.7286 17.5014 13.111 16.8838C12.4935 16.2663 11.9584 15.6272 11.5131 14.9984C11.9585 14.3692 12.4939 13.7297 13.1118 13.1118ZM13.7768 19.2424C12.2105 20.0855 10.8576 20.2857 10.2834 19.7115C9.7092 19.1373 9.90936 17.7844 10.7525 16.2181C11.1717 16.7636 11.6458 17.3042 12.1682 17.8266C12.6907 18.3491 13.2312 18.8232 13.7768 19.2424ZM19.2396 16.215C20.0829 17.7815 20.2831 19.1346 19.7089 19.7089C19.1346 20.2831 17.7815 20.0829 16.215 19.2396C16.7607 18.8204 17.3012 18.3462 17.8237 17.8237C18.3462 17.3012 18.8204 16.7607 19.2396 16.215ZM13.7759 10.7508C12.2089 9.9069 10.8552 9.70639 10.2808 10.2808C9.70639 10.8552 9.9069 12.2089 10.7508 13.7759C11.1701 13.2302 11.6443 12.6895 12.1669 12.1669C12.6895 11.6443 13.2302 11.1701 13.7759 10.7508ZM15.6641 14.9974C15.6641 14.6292 15.3656 14.3307 14.9974 14.3307C14.6292 14.3307 14.3307 14.6292 14.3307 14.9974C14.3307 15.3656 14.6292 15.6641 14.9974 15.6641C15.3656 15.6641 15.6641 15.3656 15.6641 14.9974Z" fill="#FDFDFD"/>
</svg>
