<svg width="30" height="30" viewBox="0 0 30 30" fill="none" xmlns="http://www.w3.org/2000/svg">
<rect width="30" height="30" rx="4" fill="#7D2BE5"/>
<path fill-rule="evenodd" clip-rule="evenodd" d="M21.75 8.25H8.25C7.42157 8.25 6.75 8.92157 6.75 9.75V20.25C6.75 21.0784 7.42157 21.75 8.25 21.75H21.75C22.5784 21.75 23.25 21.0784 23.25 20.25V9.75C23.25 8.92157 22.5784 8.25 21.75 8.25ZM8.25 20.25V9.75H21.75V20.25H8.25ZM12.2488 14.9994L10.0488 13.3494L10.9488 12.1494L14.7488 14.9994L10.9488 17.8494L10.0488 16.6494L12.2488 14.9994ZM15 16.5V18H18.75V16.5H15Z" fill="#FDFDFD"/>
</svg>
