<svg width="30" height="30" viewBox="0 0 30 30" fill="none" xmlns="http://www.w3.org/2000/svg">
<rect width="30" height="30" rx="4" fill="#7D2BE5"/>
<path fill-rule="evenodd" clip-rule="evenodd" d="M18.75 9.75H11.25C8.35051 9.75 6 12.1005 6 15C6 17.8995 8.35051 20.25 11.25 20.25H18.75C21.6495 20.25 24 17.8995 24 15C24 12.1005 21.6495 9.75 18.75 9.75ZM7.5 15C7.5 12.9289 9.17893 11.25 11.25 11.25H18.75C20.8211 11.25 22.5 12.9289 22.5 15C22.5 17.0711 20.8211 18.75 18.75 18.75H11.25C9.17893 18.75 7.5 17.0711 7.5 15ZM18.75 18C17.0931 18 15.75 16.6569 15.75 15C15.75 13.3431 17.0931 12 18.75 12C20.4069 12 21.75 13.3431 21.75 15C21.75 16.6569 20.4069 18 18.75 18ZM20.25 15C20.25 15.8284 19.5784 16.5 18.75 16.5C17.9216 16.5 17.25 15.8284 17.25 15C17.25 14.1716 17.9216 13.5 18.75 13.5C19.5784 13.5 20.25 14.1716 20.25 15Z" fill="white"/>
</svg>
