<svg width="30" height="31" viewBox="0 0 30 31" fill="none" xmlns="http://www.w3.org/2000/svg">
<rect y="0.488281" width="30" height="30" rx="4" fill="#7D2BE5"/>
<path fill-rule="evenodd" clip-rule="evenodd" d="M21.7597 7.98828V11.7398C21.7597 12.5686 21.0879 13.2404 20.2591 13.2404H9.75482C8.92606 13.2404 8.25421 12.5686 8.25421 11.7398V7.98828H9.75482V11.7398H20.2591V7.98828H21.7597ZM21.7597 19.2429V22.9944H20.2591V19.2429H9.75482V22.9944H8.25421V19.2429C8.25421 18.4141 8.92606 17.7423 9.75482 17.7423H20.2591C21.0879 17.7423 21.7597 18.4141 21.7597 19.2429ZM9.00452 16.2416V14.741H7.50391V16.2416H9.00452ZM11.2554 14.741V16.2416H9.75482V14.741H11.2554ZM13.5064 16.2416V14.741H12.0057V16.2416H13.5064ZM15.7573 14.741V16.2416H14.2567V14.741H15.7573ZM18.0082 16.2416V14.741H16.5076V16.2416H18.0082ZM20.2591 14.741V16.2416H18.7585V14.741H20.2591ZM22.51 16.2416V14.741H21.0094V16.2416H22.51Z" fill="white"/>
</svg>
