<svg width="76" height="76" viewBox="0 0 76 76" fill="none" xmlns="http://www.w3.org/2000/svg">
<rect width="76" height="76" rx="7" fill="#258FFC"/>
<path fill-rule="evenodd" clip-rule="evenodd" d="M43.6904 19.6665H26.3333C24.4924 19.6665 23 21.1589 23 22.9998V52.9998C23 54.8408 24.4924 56.3332 26.3333 56.3332H49.6667C51.5076 56.3332 53 54.8408 53 52.9998V28.9761L43.6904 19.6665ZM26.3333 23H39.6667V29.6667C39.6667 31.5076 41.159 33 43 33H49.6667V53H26.3333V23ZM43 29.6667V23.6904L48.9763 29.6667H43ZM39.6668 48.0002V40.3573L41.8216 42.5121L44.1786 40.1551L38.0001 33.9766L31.8216 40.1551L34.1786 42.5121L36.3335 40.3573V48.0002H39.6668Z" fill="white"/>
</svg>
