<svg width="876" height="365" viewBox="0 0 876 365" fill="none" xmlns="http://www.w3.org/2000/svg">
<g filter="url(#filter0_d)">
<circle cx="112.085" cy="220.085" r="64.0848" fill="#FF2C2C"/>
<path d="M74.8018 234.868C76.7089 234.868 77.8331 233.703 77.8331 231.716V225.352H83.2533C89.3561 225.352 93.5918 221.377 93.5918 215.435C93.5918 209.473 89.4966 205.518 83.5544 205.518H74.8018C72.8947 205.518 71.7705 206.683 71.7705 208.67V231.716C71.7705 233.703 72.8947 234.868 74.8018 234.868ZM77.8331 220.614V210.316H81.9484C85.4214 210.316 87.4289 212.163 87.4289 215.455C87.4289 218.768 85.4013 220.614 81.9284 220.614H77.8331Z" fill="white"/>
<path d="M100.096 234.868C101.903 234.868 102.987 233.764 102.987 231.836V215.515H103.168L115.734 233.121C116.658 234.406 117.461 234.868 118.766 234.868C120.673 234.868 121.737 233.804 121.737 231.917V208.168C121.737 206.221 120.673 205.117 118.846 205.117C117.019 205.117 115.935 206.221 115.935 208.168V224.389H115.775L103.248 206.883C102.324 205.619 101.481 205.117 100.237 205.117C98.3094 205.117 97.1852 206.221 97.1852 208.148V231.836C97.1852 233.764 98.2693 234.868 100.096 234.868Z" fill="white"/>
<path d="M139.623 234.968C147.794 234.968 152.471 230.01 152.471 222.642V222.2C152.471 220.213 151.347 219.049 149.44 219.049H142.354C140.888 219.049 139.925 219.872 139.925 221.257C139.925 222.642 140.908 223.465 142.354 223.465H146.569L146.549 223.927C146.429 227.52 143.679 229.949 139.724 229.949C134.906 229.949 131.854 226.115 131.854 219.832C131.854 213.669 134.725 210.035 139.503 210.035C142.354 210.035 144.461 211.3 145.887 213.889C146.63 215.114 147.533 215.656 148.818 215.656C150.404 215.656 151.468 214.592 151.468 213.046C151.468 212.464 151.367 211.882 151.026 211.179C149.4 207.626 145.044 205.016 139.483 205.016C130.971 205.016 125.671 210.637 125.671 219.912C125.671 229.327 130.971 234.968 139.623 234.968Z" fill="white"/>
</g>
<g filter="url(#filter1_d)">
<circle cx="271.085" cy="147.085" r="64.0848" fill="#5F00D9"/>
<path d="M242.37 161.968C249.597 161.968 254.033 158.395 254.033 152.734C254.033 148.337 251.384 145.868 245.241 144.643L242.189 144.021C238.757 143.339 237.371 142.234 237.371 140.448C237.371 138.32 239.359 136.915 242.35 136.915C244.839 136.915 246.706 137.818 247.67 140.006C248.352 141.251 249.195 141.793 250.561 141.793C252.106 141.793 253.15 140.809 253.15 139.364C253.15 138.842 253.07 138.42 252.929 138.019C251.645 134.245 247.65 132.016 242.35 132.016C235.906 132.016 231.289 135.529 231.289 140.829C231.289 145.145 234.119 147.916 239.901 149.06L242.972 149.662C246.606 150.405 247.971 151.489 247.971 153.396C247.971 155.524 245.763 157.09 242.511 157.09C239.74 157.09 237.472 156.086 236.528 153.878C235.806 152.593 234.982 152.111 233.738 152.111C232.172 152.111 231.068 153.175 231.068 154.781C231.068 155.323 231.188 155.885 231.389 156.407C232.553 159.579 236.388 161.968 242.37 161.968Z" fill="white"/>
<path d="M268.949 161.868C271.298 161.868 272.703 160.824 273.586 158.375L281.697 136.533C281.897 135.991 281.998 135.449 281.998 134.907C281.998 133.261 280.733 132.117 278.886 132.117C277.3 132.117 276.397 132.819 275.895 134.445L269.13 155.243H268.989L262.204 134.506C261.702 132.86 260.738 132.117 259.112 132.117C257.205 132.117 255.921 133.281 255.921 134.987C255.921 135.57 256.021 136.132 256.222 136.694L264.292 158.355C265.175 160.824 266.58 161.868 268.949 161.868Z" fill="white"/>
<path d="M297.977 161.968C306.148 161.968 310.825 157.01 310.825 149.642V149.2C310.825 147.213 309.701 146.049 307.794 146.049H300.707C299.242 146.049 298.278 146.872 298.278 148.257C298.278 149.642 299.262 150.465 300.707 150.465H304.923L304.903 150.927C304.783 154.52 302.032 156.949 298.078 156.949C293.26 156.949 290.208 153.115 290.208 146.832C290.208 140.669 293.079 137.035 297.857 137.035C300.707 137.035 302.815 138.3 304.241 140.889C304.983 142.114 305.887 142.656 307.172 142.656C308.757 142.656 309.821 141.592 309.821 140.046C309.821 139.464 309.721 138.882 309.38 138.179C307.754 134.626 303.397 132.016 297.837 132.016C289.325 132.016 284.025 137.637 284.025 146.912C284.025 156.327 289.325 161.968 297.977 161.968Z" fill="white"/>
</g>
<g filter="url(#filter2_d)">
<circle cx="605.085" cy="190.085" r="64.0848" fill="#00F261"/>
<path d="M571.031 204.349C572.938 204.349 574.063 203.185 574.063 201.198V194.834H579.483C585.586 194.834 589.821 190.859 589.821 184.917C589.821 178.955 585.726 175 579.784 175H571.031C569.124 175 568 176.164 568 178.152V201.198C568 203.185 569.124 204.349 571.031 204.349ZM574.063 190.096V179.798H578.178C581.651 179.798 583.658 181.645 583.658 184.937C583.658 188.249 581.631 190.096 578.158 190.096H574.063Z" fill="white"/>
<path d="M596.446 203.968H604.476C613.168 203.968 618.287 198.568 618.287 189.374C618.287 180.179 613.168 175 604.476 175H596.446C594.539 175 593.415 176.164 593.415 178.152V200.796C593.415 202.804 594.539 203.968 596.446 203.968ZM599.477 198.949V179.999H603.753C609.093 179.999 612.104 183.331 612.104 189.394C612.104 195.657 609.173 198.949 603.753 198.949H599.477Z" fill="white"/>
<path d="M625.233 204.349C627.14 204.349 628.265 203.185 628.265 201.198V192.565H637.8C639.386 192.565 640.39 191.662 640.39 190.156C640.39 188.671 639.366 187.768 637.8 187.768H628.265V180.019H638.784C640.43 180.019 641.534 179.075 641.534 177.509C641.534 175.944 640.45 175 638.784 175H625.233C623.326 175 622.202 176.164 622.202 178.152V201.198C622.202 203.185 623.326 204.349 625.233 204.349Z" fill="white"/>
</g>
<g filter="url(#filter3_d)">
<circle cx="764.085" cy="199.085" r="64.0848" fill="#FF4F17"/>
<path d="M733.781 213.968C739.984 213.968 743.678 210.475 743.678 204.312V187.289C743.678 185.281 742.553 184.117 740.646 184.117C738.739 184.117 737.615 185.281 737.615 187.289V204.272C737.615 207.183 736.25 208.749 733.721 208.749C731.793 208.749 730.448 207.665 729.906 205.717C729.425 204.071 728.541 203.348 727.016 203.348C725.309 203.348 724.205 204.453 724.205 206.199C724.205 207.082 724.366 207.805 724.707 208.648C726.072 211.981 729.425 213.968 733.781 213.968Z" fill="white"/>
<path d="M751.768 213.868C753.675 213.868 754.799 212.703 754.799 210.716V204.352H760.219C766.322 204.352 770.558 200.377 770.558 194.435C770.558 188.473 766.463 184.518 760.52 184.518H751.768C749.861 184.518 748.737 185.683 748.737 187.67V210.716C748.737 212.703 749.861 213.868 751.768 213.868ZM754.799 199.614V189.316H758.914C762.387 189.316 764.395 191.163 764.395 194.455C764.395 197.768 762.367 199.614 758.894 199.614H754.799Z" fill="white"/>
<path d="M787.2 213.968C795.37 213.968 800.048 209.01 800.048 201.642V201.2C800.048 199.213 798.924 198.049 797.016 198.049H789.93C788.465 198.049 787.501 198.872 787.501 200.257C787.501 201.642 788.485 202.465 789.93 202.465H794.146L794.126 202.927C794.005 206.52 791.255 208.949 787.3 208.949C782.482 208.949 779.431 205.115 779.431 198.832C779.431 192.669 782.302 189.035 787.079 189.035C789.93 189.035 792.038 190.3 793.463 192.889C794.206 194.114 795.109 194.656 796.394 194.656C797.98 194.656 799.044 193.592 799.044 192.046C799.044 191.464 798.944 190.882 798.602 190.179C796.976 186.626 792.62 184.016 787.059 184.016C778.548 184.016 773.248 189.637 773.248 198.912C773.248 208.327 778.548 213.968 787.2 213.968Z" fill="white"/>
</g>
<g filter="url(#filter4_d)">
<circle cx="438.5" cy="155.5" r="72.5" fill="#A8E700"/>
<path d="M387.031 169.751C388.938 169.751 390.063 168.587 390.063 166.599V157.164H403.111V166.599C403.111 168.587 404.235 169.751 406.143 169.751C408.05 169.751 409.174 168.587 409.174 166.599V143.172C409.174 141.164 408.05 140 406.143 140C404.235 140 403.111 141.164 403.111 143.172V152.165H390.063V143.172C390.063 141.164 388.938 140 387.031 140C385.124 140 384 141.164 384 143.172V166.599C384 168.587 385.124 169.751 387.031 169.751Z" fill="white"/>
<path d="M423.949 169.751C425.856 169.751 426.98 168.587 426.98 166.599V145.42H432.983C434.609 145.42 435.713 144.477 435.713 142.911C435.713 141.345 434.629 140.401 432.983 140.401H414.935C413.269 140.401 412.185 141.345 412.185 142.911C412.185 144.477 413.289 145.42 414.935 145.42H420.918V166.599C420.918 168.587 422.042 169.751 423.949 169.751Z" fill="white"/>
<path d="M441.434 169.751C443.14 169.751 444.124 168.707 444.124 166.92V149.817H444.285L451.451 167.362C451.953 168.607 452.796 169.189 454.081 169.189C455.346 169.189 456.149 168.627 456.671 167.342L463.838 149.817H463.998V166.92C463.998 168.707 464.982 169.751 466.688 169.751C468.395 169.751 469.398 168.707 469.398 166.92V143.915C469.398 141.445 467.953 140 465.504 140C463.376 140 462.191 140.903 461.308 143.132L454.141 160.938H453.981L446.794 143.132C445.911 140.883 444.746 140 442.639 140C440.169 140 438.724 141.465 438.724 143.915V166.92C438.724 168.707 439.728 169.751 441.434 169.751Z" fill="white"/>
<path d="M477.248 169.369H490.557C492.223 169.369 493.307 168.426 493.307 166.86C493.307 165.294 492.203 164.351 490.557 164.351H480.279V143.172C480.279 141.164 479.155 140 477.248 140C475.34 140 474.216 141.164 474.216 143.172V166.198C474.216 168.205 475.34 169.369 477.248 169.369Z" fill="white"/>
</g>
<g filter="url(#filter5_d)">
<circle cx="237.5" cy="273.5" r="30.5" fill="#303030"/>
<g clip-path="url(#clip0)">
<path d="M232.166 289C235.11 289 237.5 286.611 237.5 283.667V278.333H232.166C229.222 278.333 226.833 280.723 226.833 283.667C226.833 286.611 229.222 289 232.166 289Z" fill="#0ACF83"/>
<path d="M226.833 273C226.833 270.056 229.222 267.667 232.166 267.667H237.5V278.333H232.166C229.222 278.333 226.833 275.944 226.833 273Z" fill="#A259FF"/>
<path d="M226.834 262.333C226.834 259.389 229.223 257 232.167 257H237.501V267.667H232.167C229.223 267.667 226.834 265.277 226.834 262.333Z" fill="#F24E1E"/>
<path d="M237.5 257H242.833C245.777 257 248.167 259.389 248.167 262.333C248.167 265.277 245.777 267.667 242.833 267.667H237.5V257Z" fill="#FF7262"/>
<path d="M248.167 273C248.167 275.944 245.777 278.333 242.833 278.333C239.889 278.333 237.5 275.944 237.5 273C237.5 270.056 239.889 267.667 242.833 267.667C245.777 267.667 248.167 270.056 248.167 273Z" fill="#1ABCFE"/>
</g>
</g>
<g filter="url(#filter6_d)">
<circle cx="549.5" cy="68.5" r="30.5" fill="#303030"/>
<g clip-path="url(#clip1)">
<path fill-rule="evenodd" clip-rule="evenodd" d="M538.611 63.7301L549.69 85.4137L531.069 63.7301H538.611Z" fill="#EA6C00"/>
<path fill-rule="evenodd" clip-rule="evenodd" d="M560.771 63.7301L549.692 85.4137L568.313 63.7301H560.771Z" fill="#EA6C00"/>
<path fill-rule="evenodd" clip-rule="evenodd" d="M538.61 63.7301H560.767L549.689 85.4137L538.61 63.7301Z" fill="#FDAD00"/>
<path fill-rule="evenodd" clip-rule="evenodd" d="M549.689 51.713L539.193 52.8224L538.61 63.73L549.689 51.713Z" fill="#FDD231"/>
<path fill-rule="evenodd" clip-rule="evenodd" d="M549.689 51.713L560.184 52.8224L560.767 63.73L549.689 51.713Z" fill="#FDD231"/>
<path fill-rule="evenodd" clip-rule="evenodd" d="M568.313 63.73L560.188 52.8224L560.771 63.73H568.313Z" fill="#FDAD00"/>
<path fill-rule="evenodd" clip-rule="evenodd" d="M531.069 63.73L539.194 52.8224L538.611 63.73H531.069Z" fill="#FDAD00"/>
<path fill-rule="evenodd" clip-rule="evenodd" d="M549.689 51.713L538.61 63.73H560.767L549.689 51.713Z" fill="#FEEEB7"/>
</g>
</g>
<circle cx="690.5" cy="296.5" r="30.5" fill="#303030"/>
<g clip-path="url(#clip2)">
<path d="M680.49 281H700.51C703.546 281 706 283.454 706 286.49V305.735C706 308.771 703.546 311.225 700.51 311.225H680.49C677.454 311.225 675 308.771 675 305.735V286.49C675 283.454 677.454 281 680.49 281Z" fill="#470137"/>
<path d="M691.301 288.944L687.426 295.337L691.56 302.119C691.585 302.17 691.598 302.222 691.585 302.274C691.572 302.325 691.521 302.287 691.443 302.3H688.485C688.279 302.3 688.137 302.287 688.046 302.158C687.775 301.615 687.491 301.085 687.22 300.543C686.948 300.013 686.651 299.471 686.341 298.915C686.031 298.36 685.721 297.805 685.411 297.236H685.385C685.114 297.792 684.817 298.347 684.52 298.903C684.223 299.458 683.926 300.013 683.642 300.556C683.345 301.098 683.047 301.654 682.75 302.183C682.699 302.312 682.595 302.325 682.453 302.325H679.612C679.56 302.325 679.521 302.351 679.521 302.287C679.508 302.235 679.521 302.183 679.547 302.145L683.564 295.557L679.65 288.931C679.612 288.879 679.599 288.828 679.625 288.802C679.65 288.763 679.702 288.75 679.754 288.75H682.686C682.75 288.75 682.815 288.763 682.867 288.776C682.918 288.802 682.957 288.84 682.996 288.892C683.241 289.447 683.525 290.003 683.822 290.558C684.132 291.114 684.43 291.656 684.752 292.199C685.062 292.741 685.347 293.284 685.618 293.839H685.644C685.915 293.271 686.199 292.715 686.483 292.173C686.767 291.63 687.065 291.088 687.362 290.545C687.659 290.003 687.943 289.447 688.227 288.918C688.24 288.866 688.266 288.815 688.305 288.789C688.356 288.763 688.408 288.75 688.472 288.763H691.198C691.262 288.75 691.327 288.789 691.34 288.853C691.353 288.866 691.327 288.918 691.301 288.944Z" fill="#FF61F6"/>
<path d="M697.268 302.571C696.313 302.584 695.357 302.39 694.491 301.989C693.678 301.615 693.006 300.995 692.541 300.233C692.063 299.445 691.831 298.463 691.831 297.288C691.818 296.332 692.063 295.389 692.541 294.562C693.032 293.723 693.742 293.025 694.595 292.56C695.499 292.057 696.584 291.811 697.863 291.811C697.927 291.811 698.018 291.811 698.134 291.824C698.25 291.837 698.379 291.837 698.534 291.85V287.768C698.534 287.678 698.573 287.626 698.663 287.626H701.286C701.35 287.613 701.402 287.665 701.415 287.717C701.415 287.729 701.415 287.742 701.415 287.742V300.039C701.415 300.272 701.428 300.53 701.441 300.814C701.466 301.085 701.479 301.344 701.492 301.563C701.492 301.654 701.453 301.731 701.363 301.77C700.691 302.054 699.981 302.261 699.258 302.39C698.599 302.506 697.94 302.571 697.268 302.571ZM698.534 299.987V294.304C698.418 294.278 698.302 294.252 698.186 294.239C698.043 294.227 697.901 294.214 697.759 294.214C697.256 294.214 696.752 294.317 696.3 294.549C695.861 294.769 695.486 295.092 695.202 295.505C694.918 295.919 694.776 296.474 694.776 297.146C694.763 297.598 694.84 298.05 694.995 298.476C695.124 298.825 695.318 299.135 695.576 299.393C695.822 299.626 696.119 299.807 696.455 299.91C696.803 300.026 697.165 300.078 697.527 300.078C697.721 300.078 697.901 300.065 698.069 300.052C698.237 300.065 698.379 300.039 698.534 299.987Z" fill="#FF61F6"/>
</g>
<defs>
<filter id="filter0_d" x="24" y="136" width="176.17" height="176.17" filterUnits="userSpaceOnUse" color-interpolation-filters="sRGB">
<feFlood flood-opacity="0" result="BackgroundImageFix"/>
<feColorMatrix in="SourceAlpha" type="matrix" values="0 0 0 0 0 0 0 0 0 0 0 0 0 0 0 0 0 0 127 0"/>
<feOffset dy="4"/>
<feGaussianBlur stdDeviation="12"/>
<feColorMatrix type="matrix" values="0 0 0 0 1 0 0 0 0 0.172549 0 0 0 0 0.172549 0 0 0 0.5 0"/>
<feBlend mode="normal" in2="BackgroundImageFix" result="effect1_dropShadow"/>
<feBlend mode="normal" in="SourceGraphic" in2="effect1_dropShadow" result="shape"/>
</filter>
<filter id="filter1_d" x="183" y="63" width="176.17" height="176.17" filterUnits="userSpaceOnUse" color-interpolation-filters="sRGB">
<feFlood flood-opacity="0" result="BackgroundImageFix"/>
<feColorMatrix in="SourceAlpha" type="matrix" values="0 0 0 0 0 0 0 0 0 0 0 0 0 0 0 0 0 0 127 0"/>
<feOffset dy="4"/>
<feGaussianBlur stdDeviation="12"/>
<feColorMatrix type="matrix" values="0 0 0 0 0.372549 0 0 0 0 0 0 0 0 0 0.85098 0 0 0 0.5 0"/>
<feBlend mode="normal" in2="BackgroundImageFix" result="effect1_dropShadow"/>
<feBlend mode="normal" in="SourceGraphic" in2="effect1_dropShadow" result="shape"/>
</filter>
<filter id="filter2_d" x="517" y="106" width="176.17" height="176.17" filterUnits="userSpaceOnUse" color-interpolation-filters="sRGB">
<feFlood flood-opacity="0" result="BackgroundImageFix"/>
<feColorMatrix in="SourceAlpha" type="matrix" values="0 0 0 0 0 0 0 0 0 0 0 0 0 0 0 0 0 0 127 0"/>
<feOffset dy="4"/>
<feGaussianBlur stdDeviation="12"/>
<feColorMatrix type="matrix" values="0 0 0 0 0 0 0 0 0 0.94902 0 0 0 0 0.380392 0 0 0 0.5 0"/>
<feBlend mode="normal" in2="BackgroundImageFix" result="effect1_dropShadow"/>
<feBlend mode="normal" in="SourceGraphic" in2="effect1_dropShadow" result="shape"/>
</filter>
<filter id="filter3_d" x="676" y="115" width="176.17" height="176.17" filterUnits="userSpaceOnUse" color-interpolation-filters="sRGB">
<feFlood flood-opacity="0" result="BackgroundImageFix"/>
<feColorMatrix in="SourceAlpha" type="matrix" values="0 0 0 0 0 0 0 0 0 0 0 0 0 0 0 0 0 0 127 0"/>
<feOffset dy="4"/>
<feGaussianBlur stdDeviation="12"/>
<feColorMatrix type="matrix" values="0 0 0 0 1 0 0 0 0 0.309804 0 0 0 0 0.0901961 0 0 0 0.5 0"/>
<feBlend mode="normal" in2="BackgroundImageFix" result="effect1_dropShadow"/>
<feBlend mode="normal" in="SourceGraphic" in2="effect1_dropShadow" result="shape"/>
</filter>
<filter id="filter4_d" x="342" y="63" width="193" height="193" filterUnits="userSpaceOnUse" color-interpolation-filters="sRGB">
<feFlood flood-opacity="0" result="BackgroundImageFix"/>
<feColorMatrix in="SourceAlpha" type="matrix" values="0 0 0 0 0 0 0 0 0 0 0 0 0 0 0 0 0 0 127 0"/>
<feOffset dy="4"/>
<feGaussianBlur stdDeviation="12"/>
<feColorMatrix type="matrix" values="0 0 0 0 0.658824 0 0 0 0 0.905882 0 0 0 0 0 0 0 0 0.5 0"/>
<feBlend mode="normal" in2="BackgroundImageFix" result="effect1_dropShadow"/>
<feBlend mode="normal" in="SourceGraphic" in2="effect1_dropShadow" result="shape"/>
</filter>
<filter id="filter5_d" x="183" y="223" width="109" height="109" filterUnits="userSpaceOnUse" color-interpolation-filters="sRGB">
<feFlood flood-opacity="0" result="BackgroundImageFix"/>
<feColorMatrix in="SourceAlpha" type="matrix" values="0 0 0 0 0 0 0 0 0 0 0 0 0 0 0 0 0 0 127 0"/>
<feOffset dy="4"/>
<feGaussianBlur stdDeviation="12"/>
<feColorMatrix type="matrix" values="0 0 0 0 0 0 0 0 0 0 0 0 0 0 0 0 0 0 0.15 0"/>
<feBlend mode="normal" in2="BackgroundImageFix" result="effect1_dropShadow"/>
<feBlend mode="normal" in="SourceGraphic" in2="effect1_dropShadow" result="shape"/>
</filter>
<filter id="filter6_d" x="495" y="18" width="109" height="109" filterUnits="userSpaceOnUse" color-interpolation-filters="sRGB">
<feFlood flood-opacity="0" result="BackgroundImageFix"/>
<feColorMatrix in="SourceAlpha" type="matrix" values="0 0 0 0 0 0 0 0 0 0 0 0 0 0 0 0 0 0 127 0"/>
<feOffset dy="4"/>
<feGaussianBlur stdDeviation="12"/>
<feColorMatrix type="matrix" values="0 0 0 0 0 0 0 0 0 0 0 0 0 0 0 0 0 0 0.15 0"/>
<feBlend mode="normal" in2="BackgroundImageFix" result="effect1_dropShadow"/>
<feBlend mode="normal" in="SourceGraphic" in2="effect1_dropShadow" result="shape"/>
</filter>
<clipPath id="clip0">
<rect width="21.3376" height="32" fill="white" transform="translate(226.831 257)"/>
</clipPath>
<clipPath id="clip1">
<rect width="37.456" height="33.9052" fill="white" transform="translate(531 51.5474)"/>
</clipPath>
<clipPath id="clip2">
<rect width="31" height="30.225" fill="white" transform="translate(675 281)"/>
</clipPath>
</defs>
</svg>
