<svg width="76" height="76" viewBox="0 0 76 76" fill="none" xmlns="http://www.w3.org/2000/svg">
<rect width="76" height="76" rx="7" fill="#28D0F5"/>
<path fill-rule="evenodd" clip-rule="evenodd" d="M50.5527 21.2223L50.2877 25.1445C46.9059 21.7051 42.2377 19.668 37.2156 19.668C30.5954 19.668 24.5902 23.2078 21.3359 28.8334L24.2213 30.5025C26.8856 25.8966 31.7975 23.0013 37.2156 23.0013C41.5722 23.0013 45.6015 24.8733 48.3982 28.0013H43.8822V31.3346H53.2104L53.8785 21.447L50.5527 21.2223ZM23.0742 41.3335L37.2163 27.1914L51.3585 41.3335L37.2163 55.4757L23.0742 41.3335ZM46.6452 41.3343L37.2172 31.9062L27.7891 41.3343L37.2172 50.7624L46.6452 41.3343Z" fill="white"/>
</svg>
