<svg width="65" height="101" viewBox="0 0 65 101" fill="none" xmlns="http://www.w3.org/2000/svg">
<g filter="url(#filter0_d)">
<path d="M54.7087 49.5921C54.6831 49.5641 54.6562 49.5373 54.6283 49.5118L41.6843 36.3589C41.2409 35.9312 40.5914 35.7958 40.0141 36.0109C39.453 36.2311 39.0541 36.7364 38.9702 37.3333V43.5965H22.8944C22.1641 43.5954 21.5713 44.1866 21.5703 44.9169C21.5703 44.9408 21.5709 44.9646 21.5722 44.9883V56.1231C21.5337 56.8523 22.0938 57.4747 22.823 57.513C22.8468 57.5142 22.8705 57.5149 22.8944 57.5149H38.9702V63.7781C39.0541 64.3749 39.453 64.8803 40.0141 65.1004H40.6404C41.0287 65.0987 41.4019 64.9494 41.6843 64.6828L54.6283 51.4604C55.1665 50.9666 55.2025 50.1301 54.7087 49.5921ZM41.7538 60.368V56.1229C41.7538 55.3574 41.4754 54.7311 40.7099 54.7311H24.3559V46.38H40.7101C41.4756 46.38 41.754 45.7537 41.754 44.9882V40.7431L51.3577 50.5556L41.7538 60.368Z" fill="#232323"/>
<path d="M18.7864 43.5977C18.0177 43.5977 17.3945 44.2208 17.3945 44.9895V56.1242C17.3945 56.893 18.0177 57.5161 18.7864 57.5161C19.5551 57.5161 20.1782 56.893 20.1782 56.1242V44.9895C20.1782 44.2208 19.5551 43.5977 18.7864 43.5977Z" fill="#232323"/>
<path d="M14.6106 43.5977C13.8419 43.5977 13.2188 44.2208 13.2188 44.9895V56.1242C13.2188 56.893 13.8419 57.5161 14.6106 57.5161C15.3793 57.5161 16.0024 56.893 16.0024 56.1242V44.9895C16.0024 44.2208 15.3793 43.5977 14.6106 43.5977Z" fill="#232323"/>
<path d="M10.4348 43.5977C9.66609 43.5977 9.04297 44.2208 9.04297 44.9895V56.1242C9.04297 56.893 9.66609 57.5161 10.4348 57.5161C11.2035 57.5161 11.8267 56.893 11.8267 56.1242V44.9895C11.8267 44.2208 11.2035 43.5977 10.4348 43.5977Z" fill="#232323"/>
</g>
<defs>
<filter id="filter0_d" x="-6.66693" y="-2.80556" width="77.4333" height="114.467" filterUnits="userSpaceOnUse" color-interpolation-filters="sRGB">
<feFlood flood-opacity="0" result="BackgroundImageFix"/>
<feColorMatrix in="SourceAlpha" type="matrix" values="0 0 0 0 0 0 0 0 0 0 0 0 0 0 0 0 0 0 127 0"/>
<feOffset dy="3.92778"/>
<feGaussianBlur stdDeviation="3.36667"/>
<feColorMatrix type="matrix" values="0 0 0 0 0 0 0 0 0 0 0 0 0 0 0 0 0 0 0.25 0"/>
<feBlend mode="normal" in2="BackgroundImageFix" result="effect1_dropShadow"/>
<feBlend mode="normal" in="SourceGraphic" in2="effect1_dropShadow" result="shape"/>
</filter>
</defs>
</svg>
