<svg width="115" height="116" viewBox="0 0 115 116" fill="none" xmlns="http://www.w3.org/2000/svg">
<g filter="url(#filter0_d)">
<rect x="6.96484" y="4" width="101" height="101" rx="28.0556" fill="url(#paint0_linear)"/>
<g clip-path="url(#clip0)">
<g filter="url(#filter1_dddddd)">
<path fill-rule="evenodd" clip-rule="evenodd" d="M36.4992 40.885C36.4575 40.885 36.1442 40.8746 35.5595 40.8537C34.9747 40.8328 34.5466 40.2272 34.2751 39.0368V37.1886C34.2751 36.8127 34.2856 36.5412 34.3065 36.3742V36.1549C34.5153 34.3589 35.3193 33.4609 36.7185 33.4609C37.2615 33.4609 37.7418 33.628 38.1595 33.9621C38.7233 34.4425 39.0052 35.2256 39.0052 36.3115C39.0679 36.7501 39.0992 37.1573 39.0992 37.5332C39.1619 37.9926 39.1932 38.4939 39.1932 39.0368C39.1932 39.2665 39.1619 39.4963 39.0992 39.726C38.4101 40.4987 37.5434 40.885 36.4992 40.885ZM38.6607 69.1403C37.6582 69.1403 36.8334 68.4721 36.186 67.1355C35.6639 65.4022 35.2775 62.656 35.0269 58.897L34.933 57.8946C34.8494 56.5163 34.7972 55.8062 34.7763 55.7645C34.6301 53.3002 34.5675 51.546 34.5884 50.5018C34.5884 49.1653 34.6093 48.1316 34.651 47.4006C34.7763 46.2312 35.1209 45.3854 35.6848 44.8633C36.186 44.4248 36.7394 44.2055 37.345 44.2055C38.1177 44.2055 38.7546 44.5187 39.2558 45.1452C39.6526 45.6255 39.851 46.2521 39.851 47.0247L39.8197 47.4633L39.851 49.1235L39.945 51.0657C39.9659 51.5042 39.9972 51.9324 40.039 52.35L40.1643 54.4175C40.2478 55.2111 40.3104 56.0046 40.3522 56.7982L40.9161 62.5934C41.1249 64.3058 41.2293 65.6215 41.2293 66.5403C40.8952 68.2737 40.039 69.1403 38.6607 69.1403ZM25.4414 69.7668C23.0607 69.7668 20.9619 69.1299 19.1451 67.856C18.1844 67.1877 17.4117 66.4464 16.827 65.6319C16.1796 64.6504 15.835 63.6793 15.7933 62.7187C16.0648 61.4657 16.6182 60.8391 17.4535 60.8391C17.4953 60.8391 17.7459 60.86 18.2053 60.9018C18.6856 60.9227 19.3957 61.3195 20.3354 62.0922C20.7322 62.6351 21.1499 63.0946 21.5884 63.4705L21.7764 63.6271C22.0479 63.8568 22.3298 64.0448 22.6222 64.1909C23.5619 64.7339 24.4808 65.0054 25.3788 65.0054C26.235 65.0054 26.9972 64.7026 27.6655 64.097L27.8221 63.5018C27.843 63.3974 27.8535 63.2825 27.8535 63.1572C27.8535 62.7604 27.6446 62.2697 27.227 61.6849C26.9137 61.2464 26.3812 60.7347 25.6294 60.15L25.3161 59.8681L24.439 59.2102L23.2487 58.3645L22.7788 58.0825C22.4864 57.8946 22.1732 57.7066 21.839 57.5187C21.5884 57.3934 21.0977 57.0801 20.3667 56.5789L20.2101 56.4536C19.7507 56.1404 19.3017 55.7958 18.8631 55.4199C17.8816 54.5637 17.0985 53.5717 16.5137 52.444C15.9499 51.3163 15.668 50.0946 15.668 48.779C15.668 47.4215 16.0334 46.085 16.7644 44.7693C17.4744 43.5372 18.3724 42.5766 19.4583 41.8874C20.5651 41.1774 21.8704 40.8224 23.374 40.8224C24.8567 40.8224 26.1723 41.2296 27.3209 42.044C28.0936 42.6705 28.6679 43.4223 29.0438 44.2995C29.3571 44.9677 29.5137 45.636 29.5137 46.3043C29.5137 47.2231 29.2109 48.048 28.6053 48.779C27.9579 49.3428 27.4045 49.6247 26.945 49.6247C26.9242 49.6247 26.7884 49.6143 26.5378 49.5934C26.2872 49.5725 25.8382 49.1653 25.1908 48.3717C25.1073 48.2673 25.0655 48.1525 25.0655 48.0271V47.5886V47.15C25.0655 46.9621 25.0551 46.8577 25.0342 46.8368C24.9715 46.7115 24.9298 46.6384 24.9089 46.6175C24.888 46.5757 24.8671 46.5444 24.8462 46.5235L24.7836 46.4609C24.3659 46.0223 23.9796 45.8031 23.6246 45.8031C22.8936 45.8031 22.3194 46.2103 21.9017 47.0247C21.6511 47.5677 21.5258 48.0689 21.5258 48.5284C21.5258 48.7998 21.5884 49.0818 21.7137 49.3741C21.9226 49.9798 22.4969 50.6376 23.4366 51.3476C23.5828 51.4938 24.0005 51.7757 24.6896 52.1934C24.8567 52.2769 25.0133 52.3709 25.1595 52.4753L26.6318 53.3524C27.9057 54.1878 28.7201 54.7516 29.0751 55.044C30.1402 55.8793 31.0069 56.7042 31.6751 57.5187C32.9908 59.1894 33.6486 60.9853 33.6486 62.9066C33.6486 63.4287 33.586 63.9508 33.4607 64.4729C32.8968 66.8118 31.3828 68.4094 28.9185 69.2656C27.8117 69.5998 26.6527 69.7668 25.4414 69.7668ZM44.2992 66.0705C44.7169 66.1958 45.145 66.2584 45.5835 66.2584C46.0012 66.2584 46.4293 66.1958 46.8679 66.0705L47.4317 65.9765L47.9329 65.9452H48.2148C48.4863 65.9034 48.7474 65.8825 48.998 65.8825C49.2695 65.8825 49.5931 65.8616 49.969 65.8199L53.5088 65.6006L54.4485 65.5693C55.1168 65.5484 55.7747 65.5066 56.422 65.444C57.7586 65.444 58.6252 65.1307 59.022 64.5042C59.4397 63.8777 59.6485 63.3243 59.6485 62.844C59.6485 60.7765 57.8839 59.7428 54.3546 59.7428C53.7907 59.7428 52.8301 59.795 51.4727 59.8994C51.3474 59.9203 51.2116 59.9307 51.0654 59.9307L52.1931 58.3958L53.4461 56.6102C53.8638 56.0046 54.2815 55.3677 54.6992 54.6994C55.5971 53.3002 56.3594 51.9846 56.9859 50.7524C57.6124 49.6456 58.0196 48.5284 58.2076 47.4006C58.2911 46.9412 58.3329 46.4713 58.3329 45.991C58.3329 44.9886 58.0927 44.0802 57.6124 43.2657C56.8606 42.0545 55.7538 41.3027 54.2919 41.0103C53.4775 40.8641 52.5377 40.791 51.4727 40.791C50.5538 40.791 49.7707 40.8224 49.1233 40.885C48.2462 40.9894 47.1602 41.1878 45.8655 41.4802C43.1924 42.1693 41.8558 42.9316 41.8558 43.7669C41.8558 43.934 41.9185 44.1115 42.0438 44.2995C42.4823 44.9886 43.2028 45.5525 44.2052 45.991C45.2285 46.4296 46.0743 46.6488 46.7426 46.6488H47.0245L47.9329 46.5549L48.3088 46.5235C48.7683 46.4818 49.2277 46.4609 49.6871 46.4609L51.5353 46.5549L51.2847 47.2753C51.0968 47.6512 50.8984 48.1002 50.6895 48.6223L49.2486 51.3789C49.0397 51.7131 48.8518 52.0681 48.6847 52.444C48.3088 53.0705 47.6719 54.1147 46.7739 55.5765L45.8028 57.0801C45.6775 57.3307 45.3329 57.8424 44.7691 58.6151L43.9859 59.8367L43.4534 60.5885L43.2968 60.8391C42.712 61.6745 42.4092 62.4785 42.3884 63.2512C42.451 64.5877 43.0879 65.5275 44.2992 66.0705ZM64.0027 66.2584C63.5642 66.2584 63.1361 66.1958 62.7184 66.0705C61.5072 65.5275 60.8702 64.5877 60.8076 63.2512C60.8284 62.4785 61.1313 61.6745 61.716 60.8391L61.8726 60.5885L62.4051 59.8367L63.1883 58.6151C63.7521 57.8424 64.0967 57.3307 64.222 57.0801L65.1931 55.5765C66.0911 54.1147 66.728 53.0705 67.1039 52.444C67.271 52.0681 67.4589 51.7131 67.6678 51.3789L69.1087 48.6223C69.3176 48.1002 69.516 47.6512 69.7039 47.2753L69.9545 46.5549L68.1063 46.4609C67.6469 46.4609 67.1875 46.4818 66.728 46.5235L66.3521 46.5549L65.4437 46.6488H65.1618C64.4935 46.6488 63.6477 46.4296 62.6244 45.991C61.622 45.5525 60.9015 44.9886 60.463 44.2995C60.3377 44.1115 60.275 43.934 60.275 43.7669C60.275 42.9316 61.6116 42.1693 64.2847 41.4802C65.5794 41.1878 66.6654 40.9894 67.5425 40.885C68.1899 40.8224 68.973 40.791 69.8919 40.791C70.9569 40.791 71.8967 40.8641 72.7111 41.0103C74.173 41.3027 75.2798 42.0545 76.0316 43.2657C76.5119 44.0802 76.7521 44.9886 76.7521 45.991C76.7521 46.4713 76.7103 46.9412 76.6268 47.4006C76.4388 48.5284 76.0316 49.6456 75.4051 50.7524C74.7786 51.9846 74.0164 53.3002 73.1184 54.6994C72.7007 55.3677 72.283 56.0046 71.8654 56.6102L70.6123 58.3958L69.4846 59.9307C69.6308 59.9307 69.7666 59.9203 69.8919 59.8994C71.2493 59.795 72.2099 59.7428 72.7738 59.7428C76.3031 59.7428 78.0677 60.7765 78.0677 62.844C78.0677 63.3243 77.8589 63.8777 77.4412 64.5042C77.0445 65.1307 76.1778 65.444 74.8412 65.444C74.1939 65.5066 73.536 65.5484 72.8678 65.5693L71.928 65.6006L68.3883 65.8199C68.0124 65.8616 67.6887 65.8825 67.4172 65.8825C67.1666 65.8825 66.9055 65.9034 66.6341 65.9452H66.3521L65.8509 65.9765L65.2871 66.0705C64.8485 66.1958 64.4204 66.2584 64.0027 66.2584ZM84.0822 66.3211C85.2934 66.8431 86.5047 67.1042 87.7159 67.1042C88.3842 67.1042 89.0524 67.0311 89.7207 66.8849C92.2059 66.154 94.4195 64.9114 96.3617 63.1572C96.7793 62.7813 97.1343 62.3636 97.4267 61.9042C97.74 61.4448 97.9592 60.954 98.0845 60.4319C97.9801 59.4713 97.6669 58.9074 97.1448 58.7404C96.6436 58.5524 96.1737 58.4584 95.7351 58.4584C95.4219 58.4584 95.0982 58.4898 94.7641 58.5524L94.5448 58.6777C93.8765 59.0327 93.2291 59.4922 92.6026 60.056C92.4982 60.1604 92.1223 60.4215 91.4749 60.8391C91.0781 61.0897 90.6605 61.3299 90.2219 61.5596C89.4701 61.9982 88.6974 62.2175 87.9039 62.2175C87.0894 62.2175 86.3272 61.8207 85.6171 61.0271C85.3456 60.7138 85.1264 60.3797 84.9593 60.0247C84.9384 59.9412 84.9175 59.8681 84.8966 59.8054C84.8757 59.7428 84.8549 59.701 84.834 59.6801C85.7737 59.6384 86.8075 59.4295 87.9352 59.0536C90.1697 58.2809 92.4251 56.9026 94.7014 54.9187C95.3906 54.2713 95.8291 53.8014 96.0171 53.5091C96.936 52.4022 97.6147 51.3372 98.0532 50.3139C98.6797 48.9773 98.993 47.5886 98.993 46.1476C98.993 45.2914 98.8886 44.5083 98.6797 43.7982C98.0323 41.4802 96.5601 39.893 94.2629 39.0368C93.699 38.8698 93.1352 38.7758 92.5713 38.7549H90.8171C89.6476 38.9011 88.4573 39.2874 87.246 39.9139C86.0557 40.5404 84.9175 41.3862 83.8316 42.4513C82.7665 43.4954 81.8685 44.644 81.1376 45.897C80.4276 47.15 79.8428 48.6223 79.3834 50.3139C78.924 52.1307 78.6943 53.9894 78.6943 55.8898C78.6943 59.0432 79.3938 61.6327 80.793 63.6584C81.6701 64.8488 82.7665 65.7363 84.0822 66.3211ZM84.2701 55.9837C84.2492 56.0046 84.2179 56.0151 84.1762 56.0151C84.1762 53.6552 84.5521 51.5878 85.3039 49.8127C86.1601 47.7661 87.5071 46.1163 89.3448 44.8633C90.3681 44.2159 91.2556 43.8922 92.0075 43.8922H91.1303C91.1303 43.8713 91.3079 43.84 91.6629 43.7982C91.997 43.7982 92.2581 43.8296 92.446 43.8922H92.4773C92.7279 43.9549 92.9472 44.1324 93.1352 44.4248C93.5111 45.1139 93.699 45.7717 93.699 46.3982C93.6781 47.4424 93.3336 48.5701 92.6653 49.7814C92.2267 50.4705 91.6316 51.2014 90.8797 51.9741C89.0629 53.6866 87.3087 54.8978 85.6171 55.6078C84.928 55.8584 84.479 55.9837 84.2701 55.9837Z" fill="url(#paint1_linear)"/>
</g>
</g>
<g filter="url(#filter2_f)">
<rect x="25.6797" y="10.7344" width="63.5765" height="4.76824" rx="2.38412" fill="#F2F2F2"/>
</g>
<g filter="url(#filter3_f)">
<rect x="101.375" y="89.2109" width="63.5765" height="2.38412" rx="1.19206" transform="rotate(-90 101.375 89.2109)" fill="#F2F2F2"/>
</g>
<g filter="url(#filter4_f)">
<rect x="11.1758" y="89.2109" width="63.5765" height="1.19206" rx="0.59603" transform="rotate(-90 11.1758 89.2109)" fill="#F2F2F2"/>
</g>
</g>
<defs>
<filter id="filter0_d" x="0.23151" y="1.19444" width="114.467" height="114.467" filterUnits="userSpaceOnUse" color-interpolation-filters="sRGB">
<feFlood flood-opacity="0" result="BackgroundImageFix"/>
<feColorMatrix in="SourceAlpha" type="matrix" values="0 0 0 0 0 0 0 0 0 0 0 0 0 0 0 0 0 0 127 0"/>
<feOffset dy="3.92778"/>
<feGaussianBlur stdDeviation="3.36667"/>
<feColorMatrix type="matrix" values="0 0 0 0 0 0 0 0 0 0 0 0 0 0 0 0 0 0 0.25 0"/>
<feBlend mode="normal" in2="BackgroundImageFix" result="effect1_dropShadow"/>
<feBlend mode="normal" in="SourceGraphic" in2="effect1_dropShadow" result="shape"/>
</filter>
<filter id="filter1_dddddd" x="-47.457" y="33.4609" width="209.575" height="171.253" filterUnits="userSpaceOnUse" color-interpolation-filters="sRGB">
<feFlood flood-opacity="0" result="BackgroundImageFix"/>
<feColorMatrix in="SourceAlpha" type="matrix" values="0 0 0 0 0 0 0 0 0 0 0 0 0 0 0 0 0 0 127 0"/>
<feOffset dy="1.9875"/>
<feGaussianBlur stdDeviation="0.873415"/>
<feColorMatrix type="matrix" values="0 0 0 0 0 0 0 0 0 0.00392157 0 0 0 0 0 0 0 0 0.0191468 0"/>
<feBlend mode="normal" in2="BackgroundImageFix" result="effect1_dropShadow"/>
<feColorMatrix in="SourceAlpha" type="matrix" values="0 0 0 0 0 0 0 0 0 0 0 0 0 0 0 0 0 0 127 0"/>
<feOffset dy="4.77625"/>
<feGaussianBlur stdDeviation="2.09894"/>
<feColorMatrix type="matrix" values="0 0 0 0 0 0 0 0 0 0.00392157 0 0 0 0 0 0 0 0 0.0268461 0"/>
<feBlend mode="normal" in2="effect1_dropShadow" result="effect2_dropShadow"/>
<feColorMatrix in="SourceAlpha" type="matrix" values="0 0 0 0 0 0 0 0 0 0 0 0 0 0 0 0 0 0 127 0"/>
<feOffset dy="8.99326"/>
<feGaussianBlur stdDeviation="3.95211"/>
<feColorMatrix type="matrix" values="0 0 0 0 0 0 0 0 0 0.00392157 0 0 0 0 0 0 0 0 0.0329042 0"/>
<feBlend mode="normal" in2="effect2_dropShadow" result="effect3_dropShadow"/>
<feColorMatrix in="SourceAlpha" type="matrix" values="0 0 0 0 0 0 0 0 0 0 0 0 0 0 0 0 0 0 127 0"/>
<feOffset dy="16.0424"/>
<feGaussianBlur stdDeviation="7.0499"/>
<feColorMatrix type="matrix" values="0 0 0 0 0 0 0 0 0 0.00392157 0 0 0 0 0 0 0 0 0.0394595 0"/>
<feBlend mode="normal" in2="effect3_dropShadow" result="effect4_dropShadow"/>
<feColorMatrix in="SourceAlpha" type="matrix" values="0 0 0 0 0 0 0 0 0 0 0 0 0 0 0 0 0 0 127 0"/>
<feOffset dy="30.0056"/>
<feGaussianBlur stdDeviation="13.1861"/>
<feColorMatrix type="matrix" values="0 0 0 0 0 0 0 0 0 0.00392157 0 0 0 0 0 0 0 0 0.0488012 0"/>
<feBlend mode="normal" in2="effect4_dropShadow" result="effect5_dropShadow"/>
<feColorMatrix in="SourceAlpha" type="matrix" values="0 0 0 0 0 0 0 0 0 0 0 0 0 0 0 0 0 0 127 0"/>
<feOffset dy="71.8222"/>
<feGaussianBlur stdDeviation="31.5625"/>
<feColorMatrix type="matrix" values="0 0 0 0 0 0 0 0 0 0.00392157 0 0 0 0 0 0 0 0 0.07 0"/>
<feBlend mode="normal" in2="effect5_dropShadow" result="effect6_dropShadow"/>
<feBlend mode="normal" in="SourceGraphic" in2="effect6_dropShadow" result="shape"/>
</filter>
<filter id="filter2_f" x="15.1498" y="0.204512" width="84.6363" height="25.828" filterUnits="userSpaceOnUse" color-interpolation-filters="sRGB">
<feFlood flood-opacity="0" result="BackgroundImageFix"/>
<feBlend mode="normal" in="SourceGraphic" in2="BackgroundImageFix" result="shape"/>
<feGaussianBlur stdDeviation="5.26493" result="effect1_foregroundBlur"/>
</filter>
<filter id="filter3_f" x="94.024" y="18.2818" width="17.0862" height="78.2786" filterUnits="userSpaceOnUse" color-interpolation-filters="sRGB">
<feFlood flood-opacity="0" result="BackgroundImageFix"/>
<feBlend mode="normal" in="SourceGraphic" in2="BackgroundImageFix" result="shape"/>
<feGaussianBlur stdDeviation="3.67552" result="effect1_foregroundBlur"/>
</filter>
<filter id="filter4_f" x="3.82474" y="18.2818" width="15.8941" height="78.2786" filterUnits="userSpaceOnUse" color-interpolation-filters="sRGB">
<feFlood flood-opacity="0" result="BackgroundImageFix"/>
<feBlend mode="normal" in="SourceGraphic" in2="BackgroundImageFix" result="shape"/>
<feGaussianBlur stdDeviation="3.67552" result="effect1_foregroundBlur"/>
</filter>
<linearGradient id="paint0_linear" x1="57.4648" y1="4" x2="57.4648" y2="105" gradientUnits="userSpaceOnUse">
<stop stop-color="#434343"/>
<stop offset="1" stop-color="#1B1A1B"/>
</linearGradient>
<linearGradient id="paint1_linear" x1="57.3305" y1="33.4609" x2="57.3305" y2="69.7668" gradientUnits="userSpaceOnUse">
<stop stop-color="white"/>
<stop offset="0.421421" stop-color="#ECF1EB"/>
<stop offset="0.827347" stop-color="#A9A9A9"/>
<stop offset="1" stop-color="#C8C8C8"/>
</linearGradient>
<clipPath id="clip0">
<rect width="83.325" height="36.3059" fill="white" transform="translate(15.6641 33.457)"/>
</clipPath>
</defs>
</svg>
