<svg width="30" height="30" viewBox="0 0 30 30" fill="none" xmlns="http://www.w3.org/2000/svg">
<rect width="30" height="30" rx="4" fill="#7D2BE5"/>
<path fill-rule="evenodd" clip-rule="evenodd" d="M21.6693 14.0026C21.6693 15.6682 20.2564 17.0026 18.532 17.0026H15.668V17.7818C16.2362 17.9826 16.6866 18.433 16.8875 19.0013H20.3346V20.3346H16.8875C16.6129 21.1114 15.8721 21.668 15.0013 21.668C14.1305 21.668 13.3897 21.1114 13.1151 20.3346H9.66797V19.0013H13.1151C13.316 18.433 13.7664 17.9826 14.3346 17.7818V17.0026H11.8261C9.9068 17.0026 8.33594 15.519 8.33594 13.6693C8.33594 12.1067 9.46389 10.7852 11.0009 10.4297C11.7884 9.1498 13.3163 8.33594 15.0026 8.33594C16.9897 8.33594 18.7314 9.46517 19.3314 11.1009C20.6807 11.4395 21.6693 12.613 21.6693 14.0026ZM15.668 19.668C15.668 20.0362 15.3695 20.3346 15.0013 20.3346C14.6331 20.3346 14.3346 20.0362 14.3346 19.668C14.3346 19.2998 14.6331 19.0013 15.0013 19.0013C15.3695 19.0013 15.668 19.2998 15.668 19.668ZM18.7391 12.3456C19.6507 12.4423 20.3346 13.1601 20.3346 14.0013C20.3346 14.913 19.5352 15.668 18.5307 15.668H11.8248C10.6254 15.668 9.66797 14.7637 9.66797 13.668C9.66797 12.6772 10.4552 11.8288 11.5165 11.6882L11.868 11.6416L12.0259 11.3241C12.5153 10.3395 13.677 9.66797 15.0013 9.66797C16.5656 9.66797 17.8756 10.6017 18.1599 11.8327L18.2668 12.2955L18.7391 12.3456Z" fill="#FDFDFD"/>
</svg>
