<svg width="30" height="30" viewBox="0 0 30 30" fill="none" xmlns="http://www.w3.org/2000/svg">
<rect width="30" height="30" rx="4" fill="#7D2BE5"/>
<path fill-rule="evenodd" clip-rule="evenodd" d="M7 10H23V20H7V10ZM5 10C5 8.89543 5.89543 8 7 8H23C24.1046 8 25 8.89543 25 10V20C25 21.1046 24.1046 22 23 22H7C5.89543 22 5 21.1046 5 20V10ZM10 11H8V13H10V11ZM11 11H13V13H11V11ZM13 14H11V16H13V14ZM14 11H16V13H14V11ZM16 14H14V16H16V14ZM8 17H22V19H8V17ZM19 11H17V13H19V11ZM17 14H19V16H17V14ZM22 11H20V13H22V11Z" fill="#FDFDFD"/>
</svg>
