<svg width="30" height="30" viewBox="0 0 30 30" fill="none" xmlns="http://www.w3.org/2000/svg">
<rect width="30" height="30" rx="4" fill="#7D2BE5"/>
<path fill-rule="evenodd" clip-rule="evenodd" d="M15.8674 7.71018L21.9058 11.0648C22.6981 11.505 22.6981 12.495 21.9058 12.9352L20.8895 13.4998L21.9058 14.0644C22.6981 14.5045 22.6981 15.4946 21.9058 15.9347L20.8891 16.4996L21.9058 17.0644C22.6981 17.5045 22.6981 18.4946 21.9058 18.9347L15.8674 22.2894C15.363 22.5696 14.637 22.5696 14.1326 22.2894L8.0942 18.9347C7.30193 18.4946 7.30193 17.5045 8.0942 17.0644L9.11089 16.4996L8.0942 15.9347C7.30193 15.4946 7.30193 14.5045 8.0942 14.0644L9.1105 13.4998L8.0942 12.9352C7.30193 12.495 7.30193 11.505 8.0942 11.0648L14.1326 7.71018C14.637 7.42994 15.363 7.42994 15.8674 7.71018ZM15.8674 16.2898L19.3452 14.3578L20.5004 14.9996L19.3448 15.6416L17.8004 16.4996L15.139 17.9782C15.0876 18.0067 14.9124 18.0067 14.861 17.9782L12.1996 16.4996L10.6552 15.6416L9.49958 14.9996L10.6548 14.3578L14.1326 16.2898C14.637 16.5701 15.363 16.5701 15.8674 16.2898ZM10.6552 17.3575L9.49958 17.9996L14.861 20.9782C14.9124 21.0067 15.0876 21.0067 15.139 20.9782L20.5004 17.9996L19.3448 17.3575L15.8674 19.2894C15.363 19.5696 14.637 19.5696 14.1326 19.2894L10.6552 17.3575ZM14.8624 9.02141C14.9138 8.99286 15.089 8.99286 15.1404 9.02141L20.5018 12L15.1404 14.9786C15.089 15.0071 14.9138 15.0071 14.8624 14.9786L9.50098 12L14.8624 9.02141Z" fill="#FDFDFD"/>
</svg>
