<svg width="30" height="30" viewBox="0 0 30 30" fill="none" xmlns="http://www.w3.org/2000/svg">
<rect width="30" height="30" rx="4" fill="#7D2BE5"/>
<path fill-rule="evenodd" clip-rule="evenodd" d="M8.25 10.5V17.25H6.75V19.5C6.75 20.3284 7.42157 21 8.25 21H18H21.75C22.5784 21 23.25 20.3284 23.25 19.5V12.75C23.25 11.9216 22.5784 11.25 21.75 11.25V10.5C21.75 9.67157 21.0784 9 20.25 9H9.75C8.92157 9 8.25 9.67157 8.25 10.5ZM20.25 11.25V10.5H9.75V17.25H16.5V12.75C16.5 11.9216 17.1716 11.25 18 11.25H20.25ZM8.25 18.75H16.5V19.5H8.25V18.75ZM21.75 19.5H18V12.75H21.75V19.5Z" fill="#FDFDFD"/>
</svg>
