<svg width="71" height="31" viewBox="0 0 71 31" fill="none" xmlns="http://www.w3.org/2000/svg">
<path fill-rule="evenodd" clip-rule="evenodd" d="M2.93937 29.2673C4.47525 30.3442 6.24946 30.8826 8.262 30.8826C9.28593 30.8826 10.2657 30.7414 11.2014 30.4589C13.2845 29.7351 14.5644 28.3846 15.0411 26.4074C15.147 25.966 15.2 25.5247 15.2 25.0833C15.2 23.4592 14.6439 21.941 13.5317 20.5286C12.9668 19.8401 12.2341 19.1428 11.3338 18.4367C11.0337 18.1895 10.3452 17.7129 9.26827 17.0067L8.02368 16.2652C7.9001 16.177 7.7677 16.0975 7.62647 16.0269C7.04389 15.6738 6.69081 15.4355 6.56723 15.3119C5.77281 14.7117 5.28733 14.1556 5.11079 13.6436C5.00487 13.3965 4.95191 13.1582 4.95191 12.9287C4.95191 12.5403 5.05783 12.1166 5.26968 11.6576C5.62275 10.9691 6.10823 10.6248 6.72612 10.6248C7.02623 10.6248 7.35283 10.8102 7.70591 11.1809L7.75887 11.2339C7.77652 11.2515 7.79418 11.278 7.81183 11.3133C7.82949 11.331 7.86479 11.3928 7.91775 11.4987C7.93541 11.5164 7.94424 11.6046 7.94424 11.7635V12.1342V12.505C7.94424 12.6109 7.97954 12.708 8.05016 12.7963C8.59743 13.4671 8.97699 13.8114 9.18883 13.829C9.40068 13.8467 9.51543 13.8555 9.53308 13.8555C9.92147 13.8555 10.3893 13.6172 10.9366 13.1405C11.4485 12.5226 11.7045 11.8253 11.7045 11.0485C11.7045 10.4836 11.5721 9.91868 11.3073 9.35376C10.9895 8.6123 10.504 7.97676 9.85085 7.44714C8.87989 6.75864 7.7677 6.41439 6.51427 6.41439C5.2432 6.41439 4.13983 6.71451 3.20417 7.31474C2.28617 7.89731 1.52706 8.70939 0.926827 9.75097C0.308942 10.8632 0 11.993 0 13.1405C0 14.2527 0.238327 15.2855 0.714981 16.2388C1.20929 17.1921 1.87131 18.0306 2.70104 18.7544C3.07177 19.0722 3.45133 19.3635 3.83971 19.6283L3.97212 19.7342C4.59 20.1579 5.00487 20.4227 5.21671 20.5286C5.49918 20.6875 5.76398 20.8464 6.01114 21.0053L6.40835 21.2436L7.41462 21.9586L8.15608 22.5147L8.42089 22.753C9.05643 23.2473 9.5066 23.6799 9.77141 24.0506C10.1245 24.5449 10.301 24.9598 10.301 25.2952C10.301 25.4011 10.2922 25.4982 10.2745 25.5865L10.1421 26.0896C9.57722 26.6016 8.93285 26.8576 8.20904 26.8576C7.44993 26.8576 6.67316 26.6281 5.87873 26.1691C5.63158 26.0455 5.39325 25.8866 5.16375 25.6924L5.00487 25.56C4.63414 25.2422 4.28106 24.8538 3.94564 24.3948C3.15121 23.7417 2.55098 23.4062 2.14494 23.3886C1.75656 23.3533 1.54471 23.3356 1.5094 23.3356C0.80325 23.3356 0.335423 23.8652 0.105923 24.9245C0.141231 25.7365 0.432519 26.5574 0.979789 27.3872C1.4741 28.0757 2.12729 28.7024 2.93937 29.2673ZM16.8153 6.44087C17.3096 6.45853 17.5744 6.46735 17.6097 6.46735C18.4924 6.46735 19.225 6.14076 19.8076 5.48756C19.8606 5.29337 19.8871 5.09918 19.8871 4.90499C19.8871 4.44599 19.8606 4.02229 19.8076 3.63391C19.8076 3.31614 19.7811 2.97189 19.7282 2.60116C19.7282 1.68316 19.4899 1.02114 19.0132 0.615099C18.6601 0.332637 18.2541 0.191406 17.7951 0.191406C16.6123 0.191406 15.9326 0.950522 15.7561 2.46875V2.65412C15.7384 2.79535 15.7296 3.02485 15.7296 3.34262V4.90499C15.9591 5.91126 16.321 6.42322 16.8153 6.44087ZM17.3449 28.6583C17.8922 29.7881 18.5895 30.353 19.4369 30.353C20.6021 30.353 21.3259 29.6204 21.6083 28.1551C21.6083 27.3783 21.5201 26.2662 21.3435 24.8185L20.8669 19.9196C20.8316 19.2487 20.7786 18.5779 20.708 17.9071L20.6021 16.1593C20.5667 15.8062 20.5403 15.4443 20.5226 15.0736L20.4432 13.4318L20.4167 12.0283L20.4432 11.6576C20.4432 11.0044 20.2755 10.4748 19.94 10.0687C19.5163 9.53912 18.9779 9.27432 18.3247 9.27432C17.8127 9.27432 17.3449 9.45968 16.9212 9.83041C16.4446 10.2718 16.1533 10.9867 16.0474 11.9754C16.012 12.5932 15.9944 13.4671 15.9944 14.597C15.9767 15.4796 16.0297 16.9626 16.1533 19.0457C16.1709 19.081 16.2151 19.6813 16.2857 20.8464L16.3651 21.6938C16.577 24.8715 16.9036 27.193 17.3449 28.6583ZM24.2034 27.7579C24.5565 27.8638 24.9184 27.9168 25.2891 27.9168C25.6422 27.9168 26.0041 27.8638 26.3749 27.7579L26.8515 27.6785L27.2752 27.652H27.5135C27.743 27.6167 27.9637 27.599 28.1756 27.599C28.4051 27.599 28.6787 27.5814 28.9965 27.5461L31.9888 27.3607L32.7832 27.3342C33.3481 27.3166 33.9042 27.2812 34.4515 27.2283C35.5813 27.2283 36.314 26.9635 36.6494 26.4339C37.0025 25.9042 37.179 25.4364 37.179 25.0304C37.179 23.2826 35.6873 22.4088 32.7038 22.4088C32.2271 22.4088 31.415 22.4529 30.2675 22.5412C30.1616 22.5588 30.0469 22.5677 29.9233 22.5677L30.8766 21.2701L31.9358 19.7607C32.2889 19.2487 32.642 18.7103 32.9951 18.1454C33.7542 16.9626 34.3985 15.8504 34.9282 14.8088C35.4578 13.8731 35.802 12.9287 35.9609 11.9754C36.0315 11.587 36.0668 11.1898 36.0668 10.7837C36.0668 9.93634 35.8638 9.16839 35.4578 8.47989C34.8222 7.45597 33.8866 6.82043 32.6508 6.57328C31.9623 6.4497 31.1679 6.38791 30.2675 6.38791C29.4908 6.38791 28.8287 6.41439 28.2815 6.46735C27.54 6.55562 26.622 6.72333 25.5275 6.97049C23.2678 7.55306 22.1379 8.19743 22.1379 8.90358C22.1379 9.04481 22.1909 9.19487 22.2968 9.35376C22.6676 9.93634 23.2766 10.413 24.124 10.7837C24.989 11.1545 25.704 11.3398 26.2689 11.3398H26.5073L27.2752 11.2604L27.593 11.2339C27.9814 11.1986 28.3697 11.1809 28.7581 11.1809L30.3205 11.2604L30.1087 11.8694C29.9498 12.1872 29.7821 12.5668 29.6055 13.0081L28.3874 15.3384C28.2109 15.6209 28.052 15.921 27.9107 16.2388C27.593 16.7684 27.0545 17.6511 26.2954 18.8868L25.4745 20.1579C25.3686 20.3698 25.0773 20.8023 24.6006 21.4555L23.9386 22.4882L23.4885 23.1238L23.3561 23.3356C22.8617 24.0418 22.6058 24.7214 22.5881 25.3746C22.6411 26.5045 23.1795 27.2989 24.2034 27.7579ZM39.7741 27.7579C40.1272 27.8638 40.4891 27.9168 40.8599 27.9168C41.2129 27.9168 41.5748 27.8638 41.9456 27.7579L42.4222 27.6785L42.8459 27.652H43.0842C43.3137 27.6167 43.5344 27.599 43.7463 27.599C43.9758 27.599 44.2494 27.5814 44.5672 27.5461L47.5595 27.3607L48.3539 27.3342C48.9188 27.3166 49.4749 27.2812 50.0222 27.2283C51.1521 27.2283 51.8847 26.9635 52.2201 26.4339C52.5732 25.9042 52.7497 25.4364 52.7497 25.0304C52.7497 23.2826 51.258 22.4088 48.2745 22.4088C47.7978 22.4088 46.9857 22.4529 45.8382 22.5412C45.7323 22.5588 45.6176 22.5677 45.494 22.5677L46.4473 21.2701L47.5065 19.7607C47.8596 19.2487 48.2127 18.7103 48.5658 18.1454C49.3249 16.9626 49.9692 15.8504 50.4989 14.8088C51.0285 13.8731 51.3727 12.9287 51.5316 11.9754C51.6022 11.587 51.6375 11.1898 51.6375 10.7837C51.6375 9.93634 51.4345 9.16839 51.0285 8.47989C50.3929 7.45597 49.4573 6.82043 48.2215 6.57328C47.533 6.4497 46.7386 6.38791 45.8382 6.38791C45.0615 6.38791 44.3994 6.41439 43.8522 6.46735C43.1107 6.55562 42.1927 6.72333 41.0982 6.97049C38.8385 7.55306 37.7086 8.19743 37.7086 8.90358C37.7086 9.04481 37.7616 9.19487 37.8675 9.35376C38.2383 9.93634 38.8473 10.413 39.6947 10.7837C40.5597 11.1545 41.2747 11.3398 41.8396 11.3398H42.078L42.8459 11.2604L43.1637 11.2339C43.5521 11.1986 43.9404 11.1809 44.3288 11.1809L45.8912 11.2604L45.6794 11.8694C45.5205 12.1872 45.3528 12.5668 45.1762 13.0081L43.9581 15.3384C43.7816 15.6209 43.6227 15.921 43.4814 16.2388C43.1637 16.7684 42.6252 17.6511 41.8661 18.8868L41.0452 20.1579C40.9393 20.3698 40.648 20.8023 40.1713 21.4555L39.5093 22.4882L39.0592 23.1238L38.9268 23.3356C38.4324 24.0418 38.1765 24.7214 38.1588 25.3746C38.2118 26.5045 38.7502 27.2989 39.7741 27.7579ZM57.834 27.9697C58.858 28.4111 59.8819 28.6318 60.9058 28.6318C61.4707 28.6318 62.0357 28.57 62.6006 28.4464C64.7014 27.8285 66.5727 26.7781 68.2145 25.2952C68.5676 24.9774 68.8677 24.6243 69.1148 24.236C69.3797 23.8476 69.565 23.4327 69.6709 22.9914C69.5827 22.1793 69.3179 21.7026 68.8765 21.5614C68.4528 21.4025 68.0556 21.3231 67.6849 21.3231C67.4201 21.3231 67.1464 21.3496 66.864 21.4025L66.6786 21.5084C66.1137 21.8086 65.5664 22.1969 65.0368 22.6736C64.9485 22.7619 64.6308 22.9825 64.0835 23.3356C63.7481 23.5475 63.395 23.7505 63.0243 23.9447C62.3887 24.3154 61.7355 24.5008 61.0647 24.5008C60.3762 24.5008 59.7318 24.1653 59.1316 23.4945C58.9021 23.2297 58.7167 22.9472 58.5755 22.6471C58.5578 22.5765 58.5402 22.5147 58.5225 22.4617C58.5049 22.4088 58.4872 22.3735 58.4696 22.3558C59.264 22.3205 60.1379 22.144 61.0912 21.8262C62.9801 21.173 64.8867 20.0079 66.811 18.3307C67.3936 17.7835 67.7643 17.3863 67.9232 17.1391C68.7 16.2035 69.2737 15.3031 69.6445 14.4381C70.1741 13.3082 70.4389 12.1342 70.4389 10.9161C70.4389 10.1923 70.3506 9.5303 70.1741 8.93006C69.6268 6.97049 68.3822 5.62879 66.4403 4.90499C65.9636 4.76376 65.487 4.68431 65.0103 4.66666H63.5274C62.5388 4.79024 61.5325 5.11683 60.5086 5.64645C59.5023 6.17606 58.5402 6.89104 57.6222 7.79139C56.7218 8.67408 55.9627 9.64505 55.3448 10.7043C54.7446 11.7635 54.2503 13.0081 53.8619 14.4381C53.4735 15.974 53.2793 17.5451 53.2793 19.1516C53.2793 21.8174 53.8707 24.0065 55.0536 25.7189C55.795 26.7252 56.7218 27.4754 57.834 27.9697ZM57.9929 19.2311C57.9753 19.2487 57.9488 19.2576 57.9135 19.2576C57.9135 17.2627 58.2312 15.515 58.8668 14.0144C59.5906 12.2843 60.7293 10.8896 62.2828 9.83041C63.1478 9.28314 63.8981 9.00951 64.5337 9.00951H63.7922C63.7922 8.99185 63.9423 8.96537 64.2424 8.93006C64.5248 8.93006 64.7455 8.95655 64.9044 9.00951H64.9309C65.1427 9.06247 65.3281 9.21253 65.487 9.45968C65.8047 10.0423 65.9636 10.5984 65.9636 11.128C65.946 12.0107 65.6547 12.964 65.0898 13.9879C64.719 14.5705 64.2159 15.1884 63.5804 15.8415C62.0445 17.2892 60.5616 18.3131 59.1316 18.9133C58.549 19.1252 58.1695 19.2311 57.9929 19.2311Z" fill="white"/>
</svg>
