<svg width="76" height="76" viewBox="0 0 76 76" fill="none" xmlns="http://www.w3.org/2000/svg">
<rect width="76" height="76" rx="7" fill="#FF3366"/>
<path fill-rule="evenodd" clip-rule="evenodd" d="M56.3346 49.6654C56.3346 47.4883 54.9433 45.6363 53.0013 44.9499V31.0475C54.9433 30.3611 56.3346 28.5091 56.3346 26.332C56.3346 23.5706 54.0961 21.332 51.3346 21.332C49.1576 21.332 47.3055 22.7234 46.6191 24.6654H29.3835C28.6971 22.7234 26.845 21.332 24.668 21.332C21.9065 21.332 19.668 23.5706 19.668 26.332C19.668 28.5091 21.0593 30.3611 23.0013 31.0475V44.9499C21.0593 45.6363 19.668 47.4883 19.668 49.6654C19.668 52.4268 21.9065 54.6654 24.668 54.6654C26.845 54.6654 28.6971 53.274 29.3835 51.332H46.6191C47.3055 53.274 49.1576 54.6654 51.3346 54.6654C54.0961 54.6654 56.3346 52.4268 56.3346 49.6654ZM49.6693 31.0488V44.9512C48.2486 45.4533 47.1226 46.5793 46.6204 48H29.3848C28.8826 46.5793 27.7566 45.4533 26.3359 44.9512V31.0488C27.7566 30.5467 28.8826 29.4207 29.3848 28H46.6204C47.1226 29.4207 48.2486 30.5467 49.6693 31.0488ZM24.6667 27.9974C25.5871 27.9974 26.3333 27.2512 26.3333 26.3307C26.3333 25.4103 25.5871 24.6641 24.6667 24.6641C23.7462 24.6641 23 25.4103 23 26.3307C23 27.2512 23.7462 27.9974 24.6667 27.9974ZM53.0013 26.3307C53.0013 27.2512 52.2551 27.9974 51.3346 27.9974C50.4142 27.9974 49.668 27.2512 49.668 26.3307C49.668 25.4103 50.4142 24.6641 51.3346 24.6641C52.2551 24.6641 53.0013 25.4103 53.0013 26.3307ZM24.6667 51.3333C25.5871 51.3333 26.3333 50.5871 26.3333 49.6667C26.3333 48.7462 25.5871 48 24.6667 48C23.7462 48 23 48.7462 23 49.6667C23 50.5871 23.7462 51.3333 24.6667 51.3333ZM53.0013 49.6667C53.0013 50.5871 52.2551 51.3333 51.3346 51.3333C50.4142 51.3333 49.668 50.5871 49.668 49.6667C49.668 48.7462 50.4142 48 51.3346 48C52.2551 48 53.0013 48.7462 53.0013 49.6667Z" fill="white"/>
</svg>
