<svg width="76" height="76" viewBox="0 0 76 76" fill="none" xmlns="http://www.w3.org/2000/svg">
<rect width="76" height="76" rx="7" fill="#FF00E5"/>
<path fill-rule="evenodd" clip-rule="evenodd" d="M52.9987 24.6654V41.332C52.9987 43.173 51.5063 44.6654 49.6654 44.6654H39.6654V47.055L47.1895 51.5695L45.4745 54.4279L39.6654 50.9423V54.6654H36.332V50.9423L30.5229 54.4279L28.8079 51.5695L36.332 47.055V44.6654H26.332C24.4911 44.6654 22.9987 43.173 22.9987 41.332V24.6654H21.332V21.332H54.6654V24.6654H52.9987ZM26.332 24.6641V41.3307H49.6654V24.6641H26.332ZM31.332 37.9987H34.6654V31.332H31.332V37.9987ZM39.6654 38H36.332V28H39.6654V38ZM41.332 38H44.6654V33H41.332V38Z" fill="white"/>
</svg>
