<svg width="30" height="30" viewBox="0 0 30 30" fill="none" xmlns="http://www.w3.org/2000/svg">
<rect width="30" height="30" rx="4" fill="#7D2BE5"/>
<mask id="path-2-outside-1" maskUnits="userSpaceOnUse" x="7" y="7" width="16" height="16" fill="black">
<rect fill="white" x="7" y="7" width="16" height="16"/>
<path fill-rule="evenodd" clip-rule="evenodd" d="M15 21C18.3137 21 21 18.3137 21 15C21 11.6863 18.3137 9 15 9C11.6863 9 9 11.6863 9 15C9 18.3137 11.6863 21 15 21ZM13.2162 12.8842V17.2633C13.2162 17.5453 13.5239 17.7196 13.7658 17.5744L17.415 15.3849C17.65 15.2439 17.65 14.9035 17.415 14.7625L13.7658 12.573C13.5239 12.4279 13.2162 12.6021 13.2162 12.8842Z"/>
</mask>
<path d="M13.7658 17.5744L12.9315 16.1839L12.9315 16.1839L13.7658 17.5744ZM17.415 15.3849L18.2494 16.7754L18.2494 16.7754L17.415 15.3849ZM17.415 14.7625L18.2494 13.372L18.2494 13.372L17.415 14.7625ZM13.7658 12.573L14.6001 11.1825L14.6001 11.1825L13.7658 12.573ZM19.3784 15C19.3784 17.4181 17.4181 19.3784 15 19.3784V22.6216C19.2093 22.6216 22.6216 19.2093 22.6216 15H19.3784ZM15 10.6216C17.4181 10.6216 19.3784 12.5819 19.3784 15H22.6216C22.6216 10.7907 19.2093 7.37838 15 7.37838V10.6216ZM10.6216 15C10.6216 12.5819 12.5819 10.6216 15 10.6216V7.37838C10.7907 7.37838 7.37838 10.7907 7.37838 15H10.6216ZM15 19.3784C12.5819 19.3784 10.6216 17.4181 10.6216 15H7.37838C7.37838 19.2093 10.7907 22.6216 15 22.6216V19.3784ZM14.8378 17.2633V12.8842H11.5946V17.2633H14.8378ZM12.9315 16.1839C13.7705 15.6805 14.8378 16.2849 14.8378 17.2633H11.5946C11.5946 18.8058 13.2774 19.7586 14.6001 18.965L12.9315 16.1839ZM16.5807 13.9943L12.9315 16.1839L14.6001 18.965L18.2494 16.7754L16.5807 13.9943ZM16.5807 16.1531C15.7659 15.6642 15.7659 14.4832 16.5807 13.9944L18.2494 16.7754C19.534 16.0046 19.534 14.1428 18.2494 13.372L16.5807 16.1531ZM12.9315 13.9635L16.5807 16.1531L18.2494 13.372L14.6001 11.1825L12.9315 13.9635ZM14.8378 12.8842C14.8378 13.8626 13.7705 14.4669 12.9315 13.9635L14.6001 11.1825C13.2774 10.3888 11.5946 11.3416 11.5946 12.8842H14.8378Z" fill="white" mask="url(#path-2-outside-1)"/>
</svg>
