<svg width="76" height="76" viewBox="0 0 76 76" fill="none" xmlns="http://www.w3.org/2000/svg">
<rect width="76" height="76" rx="7" fill="#00F261"/>
<path fill-rule="evenodd" clip-rule="evenodd" d="M46.3332 46.3332V49.6665H47.9998C52.6022 49.6665 56.3332 45.9355 56.3332 41.3332C56.3332 37.1414 53.2383 33.6726 49.2089 33.0869C47.7915 28.1759 43.2642 24.6665 37.9998 24.6665C34.0889 24.6665 30.5149 26.6083 28.3663 29.7503C23.4449 30.3889 19.6665 34.5978 19.6665 39.6665C19.6665 45.1894 24.1437 49.6665 29.6665 49.6665V46.3332C25.9846 46.3332 22.9998 43.3484 22.9998 39.6665C22.9998 36.0839 25.8321 33.1451 29.3993 33.0051L30.3176 32.969L30.7772 32.1731C32.257 29.6106 34.9872 27.9998 37.9998 27.9998C42.085 27.9998 45.5504 30.9603 46.2181 34.9434L46.4561 36.3635L47.8956 36.3342C47.9216 36.3338 47.9346 36.3336 47.9476 36.3334C47.9606 36.3333 47.9737 36.3333 47.9998 36.3332C50.7613 36.3332 52.9998 38.5717 52.9998 41.3332C52.9998 44.0946 50.7613 46.3332 47.9998 46.3332H46.3332ZM39.6668 53.0002V42.0239L43.4883 45.8454L45.8453 43.4884L38.0001 35.6432L30.1549 43.4884L32.512 45.8454L36.3335 42.0239V53.0002H39.6668Z" fill="white"/>
</svg>
