<svg width="76" height="76" viewBox="0 0 76 76" fill="none" xmlns="http://www.w3.org/2000/svg">
<rect width="76" height="76" rx="7" fill="#BBF02C"/>
<path fill-rule="evenodd" clip-rule="evenodd" d="M24.6693 48V26.3333H44.668V48C44.668 48.5844 44.7682 49.1454 44.9525 49.6667H26.3359C25.4155 49.6667 24.6693 48.9205 24.6693 48ZM49.668 49.6667C48.7475 49.6667 48.0013 48.9205 48.0013 48V23H46.3359H44.668H21.3359V48C21.3359 50.7614 23.5745 53 26.3359 53H49.668H49.6693C52.4301 52.9993 54.668 50.761 54.668 48V34.6654H54.6706V31.332H48.0039V34.6654H51.3346V48C51.3346 48.9205 50.5884 49.6667 49.668 49.6667ZM34.6706 29.668V36.3346H28.0039V29.668H34.6706ZM41.3359 34.6654V31.332H36.3359V34.6654H41.3359ZM41.3372 38V41.3333H28.0039V38H41.3372ZM41.3372 46.3333V43H28.0039V46.3333H41.3372Z" fill="white"/>
</svg>
