<svg width="30" height="30" viewBox="0 0 30 30" fill="none" xmlns="http://www.w3.org/2000/svg">
<rect width="30" height="30" rx="4" fill="#7D2BE5"/>
<path fill-rule="evenodd" clip-rule="evenodd" d="M11.6693 8.33594H18.3359C19.0723 8.33594 19.6693 8.93289 19.6693 9.66927V20.3359C19.6693 21.0723 19.0723 21.6693 18.3359 21.6693H11.6693C10.9329 21.6693 10.3359 21.0723 10.3359 20.3359V9.66927C10.3359 8.93289 10.9329 8.33594 11.6693 8.33594ZM11.6693 9.66927V20.3359H18.3359V9.66927H11.6693ZM15.668 19.0013C15.668 19.3695 15.3695 19.668 15.0013 19.668C14.6331 19.668 14.3346 19.3695 14.3346 19.0013C14.3346 18.6331 14.6331 18.3346 15.0013 18.3346C15.3695 18.3346 15.668 18.6331 15.668 19.0013Z" fill="#FDFDFD"/>
</svg>
